<svg xmlns="http://www.w3.org/2000/svg" version="1.1" xmlns:xlink="http://www.w3.org/1999/xlink" xmlns:svgjs="http://svgjs.dev/svgjs" width="1440" height="560" preserveAspectRatio="none" viewBox="0 0 1440 560"><g mask="url(&quot;#SvgjsMask1000&quot;)" fill="none"><rect width="1440" height="560" x="0" y="0" fill="#0e2a47"></rect><path d="M1038.06 188.42L1067.7 188.42L1067.7 218.06L1038.06 218.06z" fill="#d3b714"></path><path d="M516.08 493.69L538.53 493.69L538.53 534.95L516.08 534.95z" fill="#e73635"></path><path d="M1101.65 275.97a1.24 1.24 0 1 0-1.92 1.57z" fill="#d3b714"></path><path d="M853.33 533L867.69 533L867.69 539.67L853.33 539.67z" stroke="#037b0b"></path><path d="M824.25 171.13a44.43 44.43 0 1 0-77.63 43.22z" stroke="#037b0b"></path><path d="M367.99 324.1 a8.59 8.59 0 1 0 17.18 0 a8.59 8.59 0 1 0 -17.18 0z" fill="#d3b714"></path><path d="M633.7 319.6L644.39 319.6L644.39 330.29L633.7 330.29z" stroke="#d3b714"></path><path d="M88.6 336.81L100.3 336.81L100.3 348.51L88.6 348.51z" stroke="#d3b714"></path><path d="M313.53 402.1a5.54 5.54 0 1 0-3.44 10.54z" stroke="#037b0b"></path><path d="M1266.24 226.66L1289.73 226.66L1289.73 273.71L1266.24 273.71z" stroke="#037b0b"></path><path d="M1332.83 192.89a37.24 37.24 0 1 0-43.79-60.25z" stroke="#e73635"></path><path d="M857.13 185.78L897.64 185.78L897.64 208.29L857.13 208.29z" fill="#e73635"></path><path d="M105.48 46.15 a33.91 33.91 0 1 0 67.82 0 a33.91 33.91 0 1 0 -67.82 0z" fill="#037b0b"></path><path d="M770.75 348.94L809.01 348.94L809.01 387.2L770.75 387.2z" stroke="#e73635"></path><path d="M1346.51 344.11a32.39 32.39 0 1 0 45.7 45.91z" stroke="#e73635"></path><path d="M398.58 384.76 a37.77 37.77 0 1 0 75.54 0 a37.77 37.77 0 1 0 -75.54 0z" fill="#037b0b"></path><path d="M141.98 121.22a4.51 4.51 0 1 0-6.06 6.69z" fill="#037b0b"></path><path d="M405.81 322.28 a29.38 29.38 0 1 0 58.76 0 a29.38 29.38 0 1 0 -58.76 0z" stroke="#037b0b"></path><path d="M1091.56 511.6L1145.86 511.6L1145.86 565.9L1091.56 565.9z" fill="#037b0b"></path><path d="M802.38 111.1L804.64 111.1L804.64 164.05L802.38 164.05z" fill="#d3b714"></path><path d="M1034.78 163.46L1059.73 163.46L1059.73 217.53L1034.78 217.53z" stroke="#037b0b"></path><path d="M1300.38 6.77 a44.55 44.55 0 1 0 89.1 0 a44.55 44.55 0 1 0 -89.1 0z" stroke="#037b0b"></path><path d="M698.95 0.02L715.38 0.02L715.38 35.38L698.95 35.38z" fill="#037b0b"></path><path d="M164.14 481.08L165.73 481.08L165.73 533.69L164.14 533.69z" fill="#e73635"></path><path d="M845.41 401.56L854.09 401.56L854.09 410.24L845.41 410.24z" stroke="#d3b714"></path><path d="M629.33 145.98L681.06 145.98L681.06 197.71L629.33 197.71z" stroke="#e73635"></path><path d="M1251.63 41.16a14.77 14.77 0 1 0 26.82-12.39z" stroke="#037b0b"></path><path d="M800.45 3L806.86 3L806.86 39.84L800.45 39.84z" fill="#d3b714"></path><path d="M1204.28 175.43L1212.93 175.43L1212.93 202.27L1204.28 202.27z" stroke="#e73635"></path><path d="M1297.62 401.12a27.41 27.41 0 1 0-46.61-28.86z" stroke="#d3b714"></path><path d="M1099.43 459.3 a10.19 10.19 0 1 0 20.38 0 a10.19 10.19 0 1 0 -20.38 0z" fill="#d3b714"></path><path d="M1151.57 148.81 a15.4 15.4 0 1 0 30.8 0 a15.4 15.4 0 1 0 -30.8 0z" fill="#d3b714"></path><path d="M112.43 294.9L150.01 294.9L150.01 332.48L112.43 332.48z" stroke="#e73635"></path></g><defs><mask id="SvgjsMask1000"><rect width="1440" height="560" fill="#ffffff"></rect></mask></defs></svg>