<svg xmlns="http://www.w3.org/2000/svg" version="1.1" xmlns:xlink="http://www.w3.org/1999/xlink" xmlns:svgjs="http://svgjs.dev/svgjs" width="1440" height="560" preserveAspectRatio="none" viewBox="0 0 1440 560"><g mask="url(&quot;#SvgjsMask1000&quot;)" fill="none"><rect width="1440" height="560" x="0" y="0" fill="#0e2a47"></rect><path d="M51.53 -25.76L116.48 11.74L116.48 86.74L51.53 124.24L-13.42 86.74L-13.42 11.74zM116.48 86.74L181.44 124.24L181.44 199.24L116.48 236.74L51.53 199.24L51.53 124.24zM51.53 424.24L116.48 461.74L116.48 536.74L51.53 574.24L-13.42 536.74L-13.42 461.74zM116.48 536.74L181.44 574.24L181.44 649.24L116.48 686.74L51.53 649.24L51.53 574.24zM246.39 86.74L311.35 124.24L311.35 199.24L246.39 236.74L181.44 199.24L181.44 124.24zM246.39 311.74L311.35 349.24L311.35 424.24L246.39 461.74L181.44 424.24L181.44 349.24zM181.44 424.24L246.39 461.74L246.39 536.74L181.44 574.24L116.48 536.74L116.48 461.74zM311.35 -25.76L376.3 11.74L376.3 86.74L311.35 124.24L246.39 86.74L246.39 11.74zM376.3 311.74L441.25 349.24L441.25 424.24L376.3 461.74L311.35 424.24L311.35 349.24zM376.3 536.74L441.25 574.24L441.25 649.24L376.3 686.74L311.35 649.24L311.35 574.24zM571.16 199.24L636.11 236.74L636.11 311.74L571.16 349.24L506.21 311.74L506.21 236.74zM766.02 536.74L830.98 574.24L830.98 649.24L766.02 686.74L701.07 649.24L701.07 574.24zM830.97 -25.76L895.93 11.74L895.93 86.74L830.97 124.24L766.02 86.74L766.02 11.74zM895.93 86.74L960.88 124.24L960.88 199.24L895.93 236.74L830.97 199.24L830.97 124.24zM830.97 199.24L895.93 236.74L895.93 311.74L830.97 349.24L766.02 311.74L766.02 236.74zM895.93 311.74L960.88 349.24L960.88 424.24L895.93 461.74L830.97 424.24L830.97 349.24zM895.93 536.74L960.88 574.24L960.88 649.24L895.93 686.74L830.97 649.24L830.97 574.24zM960.88 -25.76L1025.84 11.74L1025.84 86.74L960.88 124.24L895.93 86.74L895.93 11.74zM960.88 424.24L1025.84 461.74L1025.84 536.74L960.88 574.24L895.93 536.74L895.93 461.74zM1090.79 199.24L1155.74 236.74L1155.74 311.74L1090.79 349.24L1025.84 311.74L1025.84 236.74zM1220.7 -25.76L1285.65 11.74L1285.65 86.74L1220.7 124.24L1155.74 86.74L1155.74 11.74zM1285.65 86.74L1350.6 124.24L1350.6 199.24L1285.65 236.74L1220.7 199.24L1220.7 124.24zM1415.56 311.74L1480.51 349.24L1480.51 424.24L1415.56 461.74L1350.61 424.24L1350.61 349.24zM1480.51 199.24L1545.47 236.74L1545.47 311.74L1480.51 349.24L1415.56 311.74L1415.56 236.74z" stroke="#03305d" stroke-width="2"></path><path d="M44.03 -25.76 a7.5 7.5 0 1 0 15 0 a7.5 7.5 0 1 0 -15 0zM108.98 11.74 a7.5 7.5 0 1 0 15 0 a7.5 7.5 0 1 0 -15 0zM108.98 86.74 a7.5 7.5 0 1 0 15 0 a7.5 7.5 0 1 0 -15 0zM44.03 124.24 a7.5 7.5 0 1 0 15 0 a7.5 7.5 0 1 0 -15 0zM-20.92 86.74 a7.5 7.5 0 1 0 15 0 a7.5 7.5 0 1 0 -15 0zM-20.92 11.74 a7.5 7.5 0 1 0 15 0 a7.5 7.5 0 1 0 -15 0zM173.94 124.24 a7.5 7.5 0 1 0 15 0 a7.5 7.5 0 1 0 -15 0zM173.94 199.24 a7.5 7.5 0 1 0 15 0 a7.5 7.5 0 1 0 -15 0zM108.98 236.74 a7.5 7.5 0 1 0 15 0 a7.5 7.5 0 1 0 -15 0zM44.03 199.24 a7.5 7.5 0 1 0 15 0 a7.5 7.5 0 1 0 -15 0zM44.03 424.24 a7.5 7.5 0 1 0 15 0 a7.5 7.5 0 1 0 -15 0zM108.98 461.74 a7.5 7.5 0 1 0 15 0 a7.5 7.5 0 1 0 -15 0zM108.98 536.74 a7.5 7.5 0 1 0 15 0 a7.5 7.5 0 1 0 -15 0zM44.03 574.24 a7.5 7.5 0 1 0 15 0 a7.5 7.5 0 1 0 -15 0zM-20.92 536.74 a7.5 7.5 0 1 0 15 0 a7.5 7.5 0 1 0 -15 0zM-20.92 461.74 a7.5 7.5 0 1 0 15 0 a7.5 7.5 0 1 0 -15 0zM173.94 574.24 a7.5 7.5 0 1 0 15 0 a7.5 7.5 0 1 0 -15 0zM173.94 649.24 a7.5 7.5 0 1 0 15 0 a7.5 7.5 0 1 0 -15 0zM108.98 686.74 a7.5 7.5 0 1 0 15 0 a7.5 7.5 0 1 0 -15 0zM44.03 649.24 a7.5 7.5 0 1 0 15 0 a7.5 7.5 0 1 0 -15 0zM238.89 86.74 a7.5 7.5 0 1 0 15 0 a7.5 7.5 0 1 0 -15 0zM303.85 124.24 a7.5 7.5 0 1 0 15 0 a7.5 7.5 0 1 0 -15 0zM303.85 199.24 a7.5 7.5 0 1 0 15 0 a7.5 7.5 0 1 0 -15 0zM238.89 236.74 a7.5 7.5 0 1 0 15 0 a7.5 7.5 0 1 0 -15 0zM238.89 311.74 a7.5 7.5 0 1 0 15 0 a7.5 7.5 0 1 0 -15 0zM303.85 349.24 a7.5 7.5 0 1 0 15 0 a7.5 7.5 0 1 0 -15 0zM303.85 424.24 a7.5 7.5 0 1 0 15 0 a7.5 7.5 0 1 0 -15 0zM238.89 461.74 a7.5 7.5 0 1 0 15 0 a7.5 7.5 0 1 0 -15 0zM173.94 424.24 a7.5 7.5 0 1 0 15 0 a7.5 7.5 0 1 0 -15 0zM173.94 349.24 a7.5 7.5 0 1 0 15 0 a7.5 7.5 0 1 0 -15 0zM238.89 536.74 a7.5 7.5 0 1 0 15 0 a7.5 7.5 0 1 0 -15 0zM303.85 -25.76 a7.5 7.5 0 1 0 15 0 a7.5 7.5 0 1 0 -15 0zM368.8 11.74 a7.5 7.5 0 1 0 15 0 a7.5 7.5 0 1 0 -15 0zM368.8 86.74 a7.5 7.5 0 1 0 15 0 a7.5 7.5 0 1 0 -15 0zM238.89 11.74 a7.5 7.5 0 1 0 15 0 a7.5 7.5 0 1 0 -15 0zM368.8 311.74 a7.5 7.5 0 1 0 15 0 a7.5 7.5 0 1 0 -15 0zM433.75 349.24 a7.5 7.5 0 1 0 15 0 a7.5 7.5 0 1 0 -15 0zM433.75 424.24 a7.5 7.5 0 1 0 15 0 a7.5 7.5 0 1 0 -15 0zM368.8 461.74 a7.5 7.5 0 1 0 15 0 a7.5 7.5 0 1 0 -15 0zM368.8 536.74 a7.5 7.5 0 1 0 15 0 a7.5 7.5 0 1 0 -15 0zM433.75 574.24 a7.5 7.5 0 1 0 15 0 a7.5 7.5 0 1 0 -15 0zM433.75 649.24 a7.5 7.5 0 1 0 15 0 a7.5 7.5 0 1 0 -15 0zM368.8 686.74 a7.5 7.5 0 1 0 15 0 a7.5 7.5 0 1 0 -15 0zM303.85 649.24 a7.5 7.5 0 1 0 15 0 a7.5 7.5 0 1 0 -15 0zM303.85 574.24 a7.5 7.5 0 1 0 15 0 a7.5 7.5 0 1 0 -15 0zM563.66 199.24 a7.5 7.5 0 1 0 15 0 a7.5 7.5 0 1 0 -15 0zM628.61 236.74 a7.5 7.5 0 1 0 15 0 a7.5 7.5 0 1 0 -15 0zM628.61 311.74 a7.5 7.5 0 1 0 15 0 a7.5 7.5 0 1 0 -15 0zM563.66 349.24 a7.5 7.5 0 1 0 15 0 a7.5 7.5 0 1 0 -15 0zM498.71 311.74 a7.5 7.5 0 1 0 15 0 a7.5 7.5 0 1 0 -15 0zM498.71 236.74 a7.5 7.5 0 1 0 15 0 a7.5 7.5 0 1 0 -15 0zM758.52 536.74 a7.5 7.5 0 1 0 15 0 a7.5 7.5 0 1 0 -15 0zM823.48 574.24 a7.5 7.5 0 1 0 15 0 a7.5 7.5 0 1 0 -15 0zM823.48 649.24 a7.5 7.5 0 1 0 15 0 a7.5 7.5 0 1 0 -15 0zM758.52 686.74 a7.5 7.5 0 1 0 15 0 a7.5 7.5 0 1 0 -15 0zM693.57 649.24 a7.5 7.5 0 1 0 15 0 a7.5 7.5 0 1 0 -15 0zM693.57 574.24 a7.5 7.5 0 1 0 15 0 a7.5 7.5 0 1 0 -15 0zM823.47 -25.76 a7.5 7.5 0 1 0 15 0 a7.5 7.5 0 1 0 -15 0zM888.43 11.74 a7.5 7.5 0 1 0 15 0 a7.5 7.5 0 1 0 -15 0zM888.43 86.74 a7.5 7.5 0 1 0 15 0 a7.5 7.5 0 1 0 -15 0zM823.47 124.24 a7.5 7.5 0 1 0 15 0 a7.5 7.5 0 1 0 -15 0zM758.52 86.74 a7.5 7.5 0 1 0 15 0 a7.5 7.5 0 1 0 -15 0zM758.52 11.74 a7.5 7.5 0 1 0 15 0 a7.5 7.5 0 1 0 -15 0zM953.38 124.24 a7.5 7.5 0 1 0 15 0 a7.5 7.5 0 1 0 -15 0zM953.38 199.24 a7.5 7.5 0 1 0 15 0 a7.5 7.5 0 1 0 -15 0zM888.43 236.74 a7.5 7.5 0 1 0 15 0 a7.5 7.5 0 1 0 -15 0zM823.47 199.24 a7.5 7.5 0 1 0 15 0 a7.5 7.5 0 1 0 -15 0zM888.43 311.74 a7.5 7.5 0 1 0 15 0 a7.5 7.5 0 1 0 -15 0zM823.47 349.24 a7.5 7.5 0 1 0 15 0 a7.5 7.5 0 1 0 -15 0zM758.52 311.74 a7.5 7.5 0 1 0 15 0 a7.5 7.5 0 1 0 -15 0zM758.52 236.74 a7.5 7.5 0 1 0 15 0 a7.5 7.5 0 1 0 -15 0zM953.38 349.24 a7.5 7.5 0 1 0 15 0 a7.5 7.5 0 1 0 -15 0zM953.38 424.24 a7.5 7.5 0 1 0 15 0 a7.5 7.5 0 1 0 -15 0zM888.43 461.74 a7.5 7.5 0 1 0 15 0 a7.5 7.5 0 1 0 -15 0zM823.47 424.24 a7.5 7.5 0 1 0 15 0 a7.5 7.5 0 1 0 -15 0zM888.43 536.74 a7.5 7.5 0 1 0 15 0 a7.5 7.5 0 1 0 -15 0zM953.38 574.24 a7.5 7.5 0 1 0 15 0 a7.5 7.5 0 1 0 -15 0zM953.38 649.24 a7.5 7.5 0 1 0 15 0 a7.5 7.5 0 1 0 -15 0zM888.43 686.74 a7.5 7.5 0 1 0 15 0 a7.5 7.5 0 1 0 -15 0zM823.47 649.24 a7.5 7.5 0 1 0 15 0 a7.5 7.5 0 1 0 -15 0zM823.47 574.24 a7.5 7.5 0 1 0 15 0 a7.5 7.5 0 1 0 -15 0zM953.38 -25.76 a7.5 7.5 0 1 0 15 0 a7.5 7.5 0 1 0 -15 0zM1018.34 11.74 a7.5 7.5 0 1 0 15 0 a7.5 7.5 0 1 0 -15 0zM1018.34 86.74 a7.5 7.5 0 1 0 15 0 a7.5 7.5 0 1 0 -15 0zM1018.34 461.74 a7.5 7.5 0 1 0 15 0 a7.5 7.5 0 1 0 -15 0zM1018.34 536.74 a7.5 7.5 0 1 0 15 0 a7.5 7.5 0 1 0 -15 0zM1083.29 199.24 a7.5 7.5 0 1 0 15 0 a7.5 7.5 0 1 0 -15 0zM1148.24 236.74 a7.5 7.5 0 1 0 15 0 a7.5 7.5 0 1 0 -15 0zM1148.24 311.74 a7.5 7.5 0 1 0 15 0 a7.5 7.5 0 1 0 -15 0zM1083.29 349.24 a7.5 7.5 0 1 0 15 0 a7.5 7.5 0 1 0 -15 0zM1018.34 311.74 a7.5 7.5 0 1 0 15 0 a7.5 7.5 0 1 0 -15 0zM1018.34 236.74 a7.5 7.5 0 1 0 15 0 a7.5 7.5 0 1 0 -15 0zM1213.2 -25.76 a7.5 7.5 0 1 0 15 0 a7.5 7.5 0 1 0 -15 0zM1278.15 11.74 a7.5 7.5 0 1 0 15 0 a7.5 7.5 0 1 0 -15 0zM1278.15 86.74 a7.5 7.5 0 1 0 15 0 a7.5 7.5 0 1 0 -15 0zM1213.2 124.24 a7.5 7.5 0 1 0 15 0 a7.5 7.5 0 1 0 -15 0zM1148.24 86.74 a7.5 7.5 0 1 0 15 0 a7.5 7.5 0 1 0 -15 0zM1148.24 11.74 a7.5 7.5 0 1 0 15 0 a7.5 7.5 0 1 0 -15 0zM1343.1 124.24 a7.5 7.5 0 1 0 15 0 a7.5 7.5 0 1 0 -15 0zM1343.1 199.24 a7.5 7.5 0 1 0 15 0 a7.5 7.5 0 1 0 -15 0zM1278.15 236.74 a7.5 7.5 0 1 0 15 0 a7.5 7.5 0 1 0 -15 0zM1213.2 199.24 a7.5 7.5 0 1 0 15 0 a7.5 7.5 0 1 0 -15 0zM1408.06 311.74 a7.5 7.5 0 1 0 15 0 a7.5 7.5 0 1 0 -15 0zM1473.01 349.24 a7.5 7.5 0 1 0 15 0 a7.5 7.5 0 1 0 -15 0zM1473.01 424.24 a7.5 7.5 0 1 0 15 0 a7.5 7.5 0 1 0 -15 0zM1408.06 461.74 a7.5 7.5 0 1 0 15 0 a7.5 7.5 0 1 0 -15 0zM1343.11 424.24 a7.5 7.5 0 1 0 15 0 a7.5 7.5 0 1 0 -15 0zM1343.11 349.24 a7.5 7.5 0 1 0 15 0 a7.5 7.5 0 1 0 -15 0zM1473.01 199.24 a7.5 7.5 0 1 0 15 0 a7.5 7.5 0 1 0 -15 0zM1537.97 236.74 a7.5 7.5 0 1 0 15 0 a7.5 7.5 0 1 0 -15 0zM1537.97 311.74 a7.5 7.5 0 1 0 15 0 a7.5 7.5 0 1 0 -15 0zM1408.06 236.74 a7.5 7.5 0 1 0 15 0 a7.5 7.5 0 1 0 -15 0z" fill="#03305d"></path><path d="M45.32 369L88.63 394L88.63 444L45.32 469L2.02 444L2.02 394zM175.23 -6L218.53 19L218.53 69L175.23 94L131.93 69L131.93 19zM218.53 69L261.83 94L261.83 144L218.53 169L175.23 144L175.23 94zM218.53 219L261.83 244L261.83 294L218.53 319L175.23 294L175.23 244zM175.23 444L218.53 469L218.53 519L175.23 544L131.93 519L131.93 469zM305.14 69L348.44 94L348.44 144L305.14 169L261.83 144L261.83 94zM478.35 69L521.65 94L521.65 144L478.35 169L435.05 144L435.05 94zM435.05 444L478.35 469L478.35 519L435.05 544L391.74 519L391.74 469zM521.65 144L564.95 169L564.95 219L521.65 244L478.35 219L478.35 169zM608.25 -6L651.56 19L651.56 69L608.25 94L564.95 69L564.95 19zM651.56 369L694.86 394L694.86 444L651.56 469L608.25 444L608.25 394zM738.16 69L781.47 94L781.47 144L738.16 169L694.86 144L694.86 94zM738.16 219L781.47 244L781.47 294L738.16 319L694.86 294L694.86 244zM738.16 369L781.47 394L781.47 444L738.16 469L694.86 444L694.86 394zM694.86 444L738.16 469L738.16 519L694.86 544L651.56 519L651.56 469zM781.47 -6L824.77 19L824.77 69L781.47 94L738.16 69L738.16 19zM781.47 444L824.77 469L824.77 519L781.47 544L738.16 519L738.16 469zM954.68 144L997.98 169L997.98 219L954.68 244L911.37 219L911.37 169zM954.68 444L997.98 469L997.98 519L954.68 544L911.37 519L911.37 469zM1084.58 69L1127.88 94L1127.88 144L1084.58 169L1041.28 144L1041.28 94zM1041.28 444L1084.58 469L1084.58 519L1041.28 544L997.98 519L997.98 469zM1171.19 219L1214.49 244L1214.49 294L1171.19 319L1127.88 294L1127.88 244zM1257.79 369L1301.1 394L1301.1 444L1257.79 469L1214.49 444L1214.49 394zM1344.4 69L1387.7 94L1387.7 144L1344.4 169L1301.1 144L1301.1 94zM1301.1 144L1344.4 169L1344.4 219L1301.1 244L1257.79 219L1257.79 169zM1344.4 219L1387.7 244L1387.7 294L1344.4 319L1301.1 294L1301.1 244zM1301.1 444L1344.4 469L1344.4 519L1301.1 544L1257.79 519L1257.79 469z" stroke="rgba(6, 80, 156, 0.93)" stroke-width="2"></path></g><defs><mask id="SvgjsMask1000"><rect width="1440" height="560" fill="#ffffff"></rect></mask></defs></svg>