<svg viewBox="25.5 52.73563218390805 119.00000000000001 42.52873563218394" fill="none" xmlns="http://www.w3.org/2000/svg" xmlns:xlink="http://www.w3.org/1999/xlink" xmlns:blush="http://design.blush" overflow="visible" width="119.00000000000001px" height="42.52873563218394px"><g id="Master/Stickers/Send Notification" blush:has-customizable-colors="true" blush:viewBox="25.5 54.011494252873575 119.00000000000001 39.9770114942529" blush:i="0"><g id="Group 19" blush:i="0.0"><path id="Fill 1" fill-rule="evenodd" clip-rule="evenodd" d="M83.618 90H44.3806C43.6188 90 43 89.3286 43 88.5C43 87.6714 43.6188 87 44.3806 87H83.618C84.3812 87 85 87.6714 85 88.5C85 89.3286 84.3812 90 83.618 90" fill="#ADFFEC" blush:i="0.0.0"/><path id="Fill 3" fill-rule="evenodd" clip-rule="evenodd" d="M83.5938 70H55.4062C54.6288 70 54 69.3289 54 68.5008C54 67.6727 54.6288 67 55.4062 67H83.5938C84.3712 67 85 67.6727 85 68.5008C85 69.3289 84.3712 70 83.5938 70" fill="#ADFFEC" blush:i="0.0.1"/><path id="Fill 5" fill-rule="evenodd" clip-rule="evenodd" d="M83.6199 81H73.3801C72.6171 81 72 80.3286 72 79.5C72 78.6714 72.6171 78 73.3801 78H83.6199C84.3829 78 85 78.6714 85 79.5C85 80.3286 84.3829 81 83.6199 81" fill="#ADFFEC" blush:i="0.0.2"/><g id="Group 9" blush:i="0.0.3"><mask id="mask0de9841d2-fe2a-4b56-820c-a967224fc3b2" mask-type="alpha" maskUnits="userSpaceOnUse" x="26" y="78" width="44" height="3" blush:i="0.0.3.0"><path id="Clip 8" fill-rule="evenodd" clip-rule="evenodd" d="M26 78.3728H69.1067V80.8928H26V78.3728Z" fill="white" blush:i="0.0.3.0.0"/></mask><g mask="url(#mask0de9841d2-fe2a-4b56-820c-a967224fc3b2)" blush:i="0.0.3.1"><path id="Fill 7" fill-rule="evenodd" clip-rule="evenodd" d="M67.7096 80.8928H27.3971C26.625 80.8928 25.999 80.3288 25.999 79.6328C25.999 78.9368 26.625 78.3728 27.3971 78.3728H67.7096C68.4817 78.3728 69.1063 78.9368 69.1063 79.6328C69.1063 80.3288 68.4817 80.8928 67.7096 80.8928" fill="#ADFFEC" blush:i="0.0.3.1.0"/></g></g><path id="Fill 10" fill-rule="evenodd" clip-rule="evenodd" d="M83.6003 61H37.4011C36.6273 61 36 60.3286 36 59.5C36 58.6714 36.6273 58 37.4011 58H83.6003C84.3741 58 85 58.6714 85 59.5C85 60.3286 84.3741 61 83.6003 61" fill="#ADFFEC" blush:i="0.0.4"/><path id="Fill 12" fill-rule="evenodd" clip-rule="evenodd" d="M141 86.412C141 88.9415 138.871 91 136.253 91H89.7457C87.1305 91 85 88.9415 85 86.412V61.588C85 59.0571 87.1305 57 89.7457 57H136.253C138.871 57 141 59.0571 141 61.588V86.412Z" fill="#1AAA90" blush:i="0.0.5"/><g id="Group 16" blush:i="0.0.6"><mask id="mask1de9841d2-fe2a-4b56-820c-a967224fc3b2" mask-type="alpha" maskUnits="userSpaceOnUse" x="83" y="54" width="61" height="40" blush:i="0.0.6.0"><path id="Clip 15" fill-rule="evenodd" clip-rule="evenodd" d="M83.2852 54.5603H143.999V94H83.2852V54.5603Z" fill="white" blush:i="0.0.6.0.0"/></mask><g mask="url(#mask1de9841d2-fe2a-4b56-820c-a967224fc3b2)" blush:i="0.0.6.1"><path id="Fill 14" fill-rule="evenodd" clip-rule="evenodd" d="M141.643 87.0032C141.643 89.596 139.514 91.706 136.895 91.706H90.387C87.7717 91.706 85.6412 89.596 85.6412 87.0032V61.5574C85.6412 58.9632 87.7717 56.8546 90.387 56.8546H136.895C139.514 56.8546 141.643 58.9632 141.643 61.5574V87.0032ZM136.895 54.5603H90.387C86.4711 54.5603 83.2852 57.6989 83.2852 61.5574V87.0032C83.2852 90.8617 86.4711 94.0003 90.387 94.0003H136.895C140.813 94.0003 143.999 90.8617 143.999 87.0032V61.5574C143.999 57.6989 140.813 54.5603 136.895 54.5603V54.5603Z" fill="#ADFFEC" blush:i="0.0.6.1.0"/></g></g><path id="Fill 17" fill-rule="evenodd" clip-rule="evenodd" d="M135.755 62.4444C135.358 61.946 134.619 61.8523 134.104 62.2371L113.072 77.9146L91.8916 62.2343C91.3765 61.8523 90.6376 61.9475 90.242 62.4472C89.8479 62.947 89.9451 63.6626 90.4616 64.0459L104.539 74.4688L90.4588 84.9555C89.9437 85.3402 89.8479 86.0558 90.2449 86.5542C90.4757 86.8467 90.8248 87 91.178 87C91.4286 87 91.6819 86.9219 91.8959 86.7629L106.476 75.9028L112.358 80.2573C112.569 80.4135 112.821 80.4916 113.073 80.4916C113.327 80.4916 113.58 80.4121 113.792 80.2545L119.627 75.9056L134.101 86.7601C134.317 86.9219 134.57 87 134.822 87C135.174 87 135.521 86.8467 135.752 86.557C136.151 86.0601 136.056 85.3445 135.543 84.9583L121.555 74.4688L135.541 64.0431C136.056 63.6583 136.152 62.9442 135.755 62.4444" fill="#ADFFEC" blush:i="0.0.7"/></g></g></svg>